<svg xmlns="http://www.w3.org/2000/svg" viewBox="0 0 1600 260" fill="none">
  <g stroke="#d8cfbf" stroke-width="2" stroke-linecap="round" stroke-linejoin="round" opacity=".72">
    <path d="M27 144c47-38 83-61 110-70 21-7 36 14 52 10 17-4 30-36 51-38 27-3 42 48 70 44 25-3 34-43 58-47 27-4 47 49 75 47 18-1 31-26 48-25 23 1 37 48 66 54 25 5 41-20 67-15 26 4 48 30 74 51" />
    <path d="M53 169c37-20 75-25 111-13 20 6 39 18 60 13 22-6 34-30 56-31 28-2 45 34 72 34 29 0 42-32 71-29 31 3 50 39 82 41 24 2 42-14 65-10 26 4 47 24 73 36" />
    <path d="M1120 139c48-37 84-58 110-66 20-6 34 16 50 12 18-5 31-38 52-40 27-3 44 47 72 44 24-3 34-40 57-43 28-4 48 46 78 48 18 1 32-18 49-16" />
    <path d="M1080 173c44-22 81-28 112-17 22 8 38 22 61 14 22-7 35-31 57-31 28 0 46 33 74 32 28-1 43-30 70-26 32 4 52 38 84 41" />
  </g>
  <g stroke="#d0c6b6" stroke-width="2" stroke-linecap="round" stroke-linejoin="round" opacity=".7">
    <path d="M1283 156h164" />
    <path d="M1316 155v-42h100v42" />
    <path d="M1303 114h126l-63-33-63 33Z" />
    <path d="M1326 113l40-19 40 19" />
    <path d="M1344 154v-28h44v28" />
    <path d="M1327 126h78" />
    <path d="M1376 74c-5-17 2-34 17-44 12 18 8 36-4 49" />
    <path d="M1414 84c9-18 27-28 51-24-6 20-23 31-47 34" />
    <path d="M1403 105c13-11 31-13 51-6-11 17-28 24-49 19" />
  </g>
  <g stroke="#d8cfbf" stroke-width="2" stroke-linecap="round" stroke-linejoin="round" opacity=".62">
    <path d="M144 171c5-18 18-31 39-39 6 22-3 40-25 54" />
    <path d="M100 185c15-15 34-21 57-17-9 21-27 31-54 31" />
    <path d="M74 151c20-2 35 5 46 21-22 9-40 5-54-14" />
    <path d="M226 154c9-14 23-22 43-23-2 20-14 33-36 39" />
    <path d="M197 187c17-7 34-4 51 9-17 14-35 16-54 3" />
  </g>
  <g stroke="#d4cabb" stroke-width="1.7" stroke-linecap="round" stroke-linejoin="round" opacity=".48">
    <path d="M688 200c24-16 45-19 63-8 17 10 31 10 43 0 14-12 31-10 52 6" />
    <path d="M724 188c8-11 16-18 26-21 11 14 10 26-4 37" />
    <path d="M1190 208c19-13 36-16 51-7 14 9 28 9 42 1 15-9 33-7 55 8" />
  </g>
</svg>
